<?xml version="1.0" encoding="UTF-8" standalone="no"?>
<!-- Created with Inkscape (http://www.inkscape.org/) -->
<svg xmlns:dc="http://purl.org/dc/elements/1.1/" xmlns:cc="http://creativecommons.org/ns#" xmlns:rdf="http://www.w3.org/1999/02/22-rdf-syntax-ns#" xmlns:svg="http://www.w3.org/2000/svg" xmlns="http://www.w3.org/2000/svg" xmlns:sodipodi="http://sodipodi.sourceforge.net/DTD/sodipodi-0.dtd" xmlns:inkscape="http://www.inkscape.org/namespaces/inkscape" width="744.09448819" height="1052.3622047" id="svg2" version="1.1" inkscape:version="0.48.3.1 r9886" sodipodi:docname="drawing.svg">
  <defs id="defs4"/>
  <sodipodi:namedview id="base" pagecolor="#ffffff" bordercolor="#666666" borderopacity="1.0" inkscape:pageopacity="0.0" inkscape:pageshadow="2" inkscape:zoom="0.35" inkscape:cx="37.857143" inkscape:cy="520" inkscape:document-units="px" inkscape:current-layer="layer2" showgrid="false" inkscape:window-width="1360" inkscape:window-height="709" inkscape:window-x="0" inkscape:window-y="27" inkscape:window-maximized="1"/>
  <g inkscape:groupmode="layer" id="layer2" inkscape:label="concept">
    <path style="fill:none;stroke:#000000;stroke-width:8;stroke-linecap:butt;stroke-linejoin:miter;stroke-miterlimit:4;stroke-opacity:1;stroke-dasharray:none" d="m 320,652.36218 -2.85714,148.57143 -100,40" id="path5244" inkscape:connector-curvature="0"/>
    <path style="fill:none;stroke:#000000;stroke-width:8;stroke-linecap:butt;stroke-linejoin:miter;stroke-miterlimit:4;stroke-opacity:1;stroke-dasharray:none" d="m 377.14285,649.50504 5.71429,151.42857 102.85714,34.28571" id="path5246" inkscape:connector-curvature="0"/>
    <rect style="fill:#008000;fill-opacity:1;stroke:#000000;stroke-width:6.24332905;stroke-linecap:butt;stroke-linejoin:miter;stroke-miterlimit:4;stroke-opacity:1;stroke-dasharray:none;stroke-dashoffset:0" id="rect5236" width="164.6138" height="227.47101" x="267.69308" y="451.48386" rx="28.571428" ry="64.604218"/>
    <path style="fill:#ffb380;fill-opacity:1;stroke:#000000;stroke-width:8;stroke-linecap:butt;stroke-linejoin:miter;stroke-miterlimit:4;stroke-opacity:1;stroke-dasharray:none" d="m 274.28572,489.50504 77.14285,80 71.42858,-77.14286" id="path5254" inkscape:connector-curvature="0"/>
    <path sodipodi:type="arc" style="fill:#ffb380;fill-opacity:1;stroke:#000000;stroke-width:8;stroke-linecap:butt;stroke-linejoin:miter;stroke-miterlimit:4;stroke-opacity:1;stroke-dasharray:none;stroke-dashoffset:0" id="path2986" sodipodi:cx="268.57144" sodipodi:cy="246.6479" sodipodi:rx="131.42857" sodipodi:ry="131.42857" d="m 400.00002,246.6479 a 131.42857,131.42857 0 1 1 -262.85715,0 131.42857,131.42857 0 1 1 262.85715,0 z" transform="translate(80,131.42857)"/>
    <path style="fill:none;stroke:#000000;stroke-width:8;stroke-linecap:butt;stroke-linejoin:miter;stroke-miterlimit:4;stroke-opacity:1;stroke-dasharray:none" d="m 274.28571,489.50504 -97.14285,160 0,0 -2.85715,-2.85714" id="path5238" inkscape:connector-curvature="0"/>
    <path style="fill:none;stroke:#000000;stroke-width:8;stroke-linecap:butt;stroke-linejoin:miter;stroke-miterlimit:4;stroke-opacity:1;stroke-dasharray:none" d="m 431.42857,483.79075 105.71429,160 0,0" id="path5240" inkscape:connector-curvature="0"/>
    <path sodipodi:type="arc" style="fill:#000000;fill-opacity:1;stroke:#000000;stroke-width:8;stroke-linecap:butt;stroke-linejoin:miter;stroke-miterlimit:4;stroke-opacity:1;stroke-dasharray:none;stroke-dashoffset:0" id="path5248" sodipodi:cx="235.71428" sodipodi:cy="229.50504" sodipodi:rx="7.1428571" sodipodi:ry="20" d="m 242.85714,229.50504 a 7.1428571,20 0 1 1 -14.28572,0 7.1428571,20 0 1 1 14.28572,0 z" transform="translate(80,131.42857)"/>
    <path sodipodi:type="arc" style="fill:#000000;fill-opacity:1;stroke:#000000;stroke-width:8;stroke-linecap:butt;stroke-linejoin:miter;stroke-miterlimit:4;stroke-opacity:1;stroke-dasharray:none;stroke-dashoffset:0" id="path5250" sodipodi:cx="277.14285" sodipodi:cy="229.50504" sodipodi:rx="8.5714283" sodipodi:ry="14.285714" d="m 285.71428,229.50504 a 8.5714283,14.285714 0 1 1 -17.14286,0 8.5714283,14.285714 0 1 1 17.14286,0 z" transform="translate(80,131.42857)"/>
    <path style="fill:none;stroke:#000000;stroke-width:8;stroke-linecap:butt;stroke-linejoin:miter;stroke-miterlimit:4;stroke-opacity:1;stroke-dasharray:none" d="M 285.71429,440.93361 C 323.80953,478.12711 361.90476,488.03633 400,426.6479" id="path5252" inkscape:connector-curvature="0" sodipodi:nodetypes="cc"/>
    <path style="fill:#504416;fill-opacity:1;stroke:#000000;stroke-width:8;stroke-linecap:butt;stroke-linejoin:miter;stroke-miterlimit:4;stroke-opacity:1;stroke-dasharray:none;stroke-dashoffset:0" id="path3007" d="m 372.1538,248.81912 c -7.57393,7.5602 -16.65208,13.23041 -25.44517,19.21859 -1.34163,0.84581 -2.65205,1.7433 -4.02489,2.53743 -36.86091,21.32246 -64.57283,36.86331 -7.7564,4.43746 1.10269,-0.62932 -2.16862,1.32142 -3.26864,1.9554 -38.80517,22.36474 -26.20349,15.60899 -42.5963,24.34128 -5.50175,2.86125 -11.44901,4.67686 -17.07993,7.22549 -5.56319,2.43007 -11.11095,4.81479 -16.4484,7.72118 -4.37643,1.60878 -8.41801,3.65397 -12.91327,4.96925 -2.11461,1.29849 -5.47757,-0.0925 -6.99326,1.78024 -1.98881,0.71694 -3.96379,1.47153 -5.9373,2.22937 -1.19719,-0.2979 -2.43568,-0.16307 -3.65598,-0.23784 -1.05558,-0.10085 -2.11868,-0.0596 -3.17786,-0.0767 -1.65202,-0.16578 -3.04175,-2.4969 -3.91848,-3.90443 -0.30487,-0.50537 -0.55051,-1.04247 -0.80685,-1.57313 0,0 37.96767,-19.86536 37.96767,-19.86536 l 0,0 c -0.18319,-0.27293 -0.3152,-0.43891 -0.14988,-0.01 0.81905,1.28854 0.46216,0.26189 1.49099,0.2484 1.05604,-0.007 2.11659,0.0579 3.16893,-0.0483 0.96648,-0.11836 2.0401,-0.12871 2.74779,-0.87931 1.9527,-0.70563 3.90199,-1.42167 5.83357,-2.18352 2.45271,0.0802 4.67372,-0.71237 6.97246,-1.52408 4.21673,-1.56527 8.30585,-3.51588 12.38221,-5.40487 5.419,-2.65676 10.99313,-4.9724 16.52771,-7.37487 5.71587,-2.27551 11.40877,-4.61246 16.83559,-7.53051 14.15889,-7.71998 2.91338,-1.62196 -29.54425,17.2012 -1.11936,0.64914 2.25441,-1.27095 3.37435,-1.91909 13.19768,-7.63786 26.35256,-15.34988 39.5784,-22.93887 9.21568,-5.28795 -47.95673,27.69574 -27.53359,16.05995 8.67837,-5.69459 17.58049,-11.15535 25.21697,-18.23659 0,0 39.15381,-16.21804 39.15381,-16.21804 z" inkscape:connector-curvature="0"/>
    <path style="fill:#504416;fill-opacity:1;stroke:#000000;stroke-width:8;stroke-linecap:butt;stroke-linejoin:miter;stroke-miterlimit:4;stroke-opacity:1;stroke-dasharray:none;stroke-dashoffset:0" id="path3009" d="m 382.50249,257.98795 c 3.57425,5.9005 7.56175,11.5127 12.68095,16.15677 3.13543,3.7194 7.46264,5.39034 11.46154,7.94749 5.32775,3.86985 9.68899,8.96045 15.24854,12.49781 3.64978,1.81416 7.38204,3.5382 11.30538,4.70222 3.4847,1.93613 6.67862,3.9976 10.46197,5.32276 3.15603,0.88937 6.41944,0.99365 9.67335,1.0232 2.7189,0.0177 5.43725,-0.066 8.15584,-0.0703 2.39799,0.0128 4.79578,-0.0177 7.19368,-0.0297 2.26891,0.0194 4.53776,0.0248 6.80658,-0.008 0.59337,-0.009 1.18664,-0.0227 1.77977,-0.0415 0,0 -34.65346,25.17578 -34.65346,25.17578 l 0,0 c -0.55424,-0.0196 -1.10868,-0.033 -1.66321,-0.0419 -2.25935,-0.0344 -4.51878,-0.0269 -6.7782,-0.004 -2.38157,-0.005 -4.76351,-0.0189 -7.14492,0.0172 -2.75011,0.0278 -5.50317,0.002 -8.25027,-0.13452 -3.5516,-0.29202 -7.07176,-0.85814 -10.38544,-2.23772 -3.55848,-1.55802 -6.74689,-3.78588 -10.39137,-5.13357 -4.07393,-1.57692 -8.14748,-3.3541 -11.77994,-5.79418 -5.18312,-3.87197 -9.58384,-8.70978 -14.99857,-12.29303 -4.4699,-2.42418 -8.76103,-4.74649 -12.05251,-8.73414 -5.05035,-5.13069 -9.14696,-10.98188 -13.22629,-16.89916 0,0 36.55658,-21.42105 36.55658,-21.42105 z" inkscape:connector-curvature="0"/>
    <path style="fill:#504416;fill-opacity:1;stroke:#000000;stroke-width:8;stroke-linecap:butt;stroke-linejoin:miter;stroke-miterlimit:4;stroke-opacity:1;stroke-dasharray:none;stroke-dashoffset:0" id="path3011" d="m 357.97755,254.40037 c -16.35992,13.14243 -34.42182,25.21522 -54.42468,31.76334 -6.20947,2.04094 -12.56902,3.45378 -19.06654,4.13503 -3.813,0.7607 -8.01767,1.61618 -11.57688,3.28839 -3.69831,1.93472 -7.95835,2.27347 -12.05768,2.55581 -1.21303,-0.64126 -4.86267,1.23345 -5.93203,0.27873 -0.52769,-0.47112 -0.85771,-1.12517 -1.28657,-1.68776 -0.95798,-1.43416 -1.31328,-2.92332 -1.32662,-4.60953 -0.0254,-1.28343 0.0483,-2.56295 0.0969,-3.84508 0.0517,-1.39024 -0.0574,-2.78082 -0.0126,-4.1702 0.0267,-1.8417 0.0401,-3.68361 0.0348,-5.52559 0.0331,-2.77348 -0.0172,-5.54469 0.13793,-8.31477 0.93834,-2.36313 1.14255,-5.15409 2.35673,-7.38022 23.85434,-16.28169 25.5064,-22.29739 42.71886,-21.17844 2.39857,0.10669 4.80065,0.12342 7.2013,0.12785 2.92681,-0.35849 3.12392,0.47379 4.88622,2.54178 1.42093,1.38543 2.72012,3.11241 3.92275,4.76918 0.76025,1.08136 0.40384,0.56705 1.07134,1.54144 0,0 -36.85881,21.56151 -36.85881,21.56151 l 0,0 c -0.5511,-0.88298 -0.2533,-0.42123 -0.89826,-1.38212 -1.04979,-1.41001 -2.17215,-2.81028 -3.50986,-3.93578 -2.09734,-2.33723 1.65077,0.64107 -3.09705,-0.085 -2.43025,-0.0352 -4.8608,-0.0791 -7.29116,-0.0871 -13.25898,0.58593 -49.19056,33.73334 31.56962,-19.54537 -0.59301,0.0374 -1.28062,-0.31327 -1.78255,0.005 -1.15574,0.73222 -0.95918,3.69482 -1.87563,4.6683 -1.34475,2.00048 -0.27066,4.99786 -0.54521,7.32854 -0.005,1.83088 0.009,3.6617 0.0354,5.49228 0.0452,1.40728 -0.0742,2.81546 -0.0353,4.22371 0.032,1.28119 0.0673,2.55966 -0.035,3.83849 -0.0233,0.69146 0.0841,1.58726 -0.40977,1.45323 -0.18149,-0.33696 -0.53742,-0.62823 -0.54448,-1.0109 -0.003,-0.17526 0.35031,-0.014 0.52544,-0.0218 1.65482,-0.0732 3.30897,-0.18056 4.95325,-0.38741 3.98167,-0.6266 7.75432,-1.72082 11.46052,-3.31775 3.98545,-1.00638 7.89931,-2.34322 12.04321,-2.5277 6.27285,-0.99185 12.44308,-2.50722 18.36858,-4.83005 13.25196,-5.72096 31.10519,-17.45465 -26.49051,16.16143 -2.11857,1.23652 4.13297,-2.66561 6.019,-4.23413 0.75403,-0.62709 1.52168,-1.23762 2.28252,-1.85643 0,0 39.37273,-15.80059 39.37273,-15.80059 z" inkscape:connector-curvature="0"/>
    <path style="fill:#504416;fill-opacity:1;stroke:#000000;stroke-width:8;stroke-linecap:butt;stroke-linejoin:miter;stroke-miterlimit:4;stroke-opacity:1;stroke-dasharray:none;stroke-dashoffset:0" id="path3013" d="m 416.9055,253.16214 c 7.04521,3.49706 14.03447,7.09151 21.38234,9.9257 7.73342,3.40368 15.58627,6.36739 23.94398,7.71711 5.18198,1.6704 10.58867,2.58726 15.99327,3.16928 2.86838,0.25846 5.74688,0.20874 8.62232,0.19593 2.09663,-0.3914 3.89122,-1.58011 6.17478,-2.28266 -11.85467,6.68548 -23.70934,13.37096 -35.56401,20.05644 2.77147,-1.14117 3.88938,-4.71777 5.51766,-7.11935 2.38395,-2.77097 3.08662,-6.25462 3.51407,-9.77713 0.22469,-2.09522 0.28259,-4.19873 0.22879,-6.30362 0.95828,1.71845 -0.60888,1.70331 -1.94249,1.77969 -1.96654,0.0695 -3.93353,0.0869 -5.90107,0.0715 -1.61324,0.37285 -3.61887,-0.49874 -5.19079,-0.006 -0.87384,0.27394 -1.55287,0.98979 -2.40088,1.3355 -3.95179,0.97302 -8.04606,1.19025 -12.09481,1.44015 -3.09219,0.0649 -6.18527,0.0992 -9.27805,0.13722 0,0 34.5313,-25.09616 34.5313,-25.09616 l 0,0 c 2.98152,0.0303 5.96671,8.9e-4 8.93826,-0.27239 3.91649,-0.34301 7.83458,-0.88028 11.53435,-2.27854 2.74141,-0.67188 5.61073,-0.14622 8.42488,-0.33396 2.01866,-0.0415 4.03889,-0.089 6.05721,-0.006 2.60131,0.27153 4.19736,1.37547 5.39086,3.79653 -0.0206,2.27921 -0.032,4.56441 -0.21638,6.83639 -0.36795,4.00514 -0.71175,8.16661 -2.57286,11.80049 -2.07434,2.6388 -4.02204,5.26281 -4.82338,8.59678 -5.92387,3.36145 -28.97617,22.82136 -44.80567,22.64368 -2.95743,-0.0474 -5.90596,-0.28221 -8.83069,-0.7359 -5.36343,-0.91016 -10.66283,-2.14141 -15.92841,-3.50534 -8.34602,-1.92156 -16.1505,-5.30904 -24.06418,-8.52617 -7.53241,-2.91929 -14.70841,-6.61877 -22.06452,-9.95119 0,0 35.42412,-23.30781 35.42412,-23.30781 z" inkscape:connector-curvature="0"/>
    <path style="fill:#504416;fill-opacity:1;stroke:#000000;stroke-width:8;stroke-linecap:butt;stroke-linejoin:miter;stroke-miterlimit:4;stroke-opacity:1;stroke-dasharray:none;stroke-dashoffset:0" id="path3015" d="m 349.39491,254.54014 c -9.83333,3.29865 -20.00642,5.45279 -30.10499,7.76889 -7.28615,2.72377 -14.81593,4.0826 -22.50171,4.97312 -5.09875,0.22977 -10.48987,1.67648 -14.80314,-1.56568 -3.54595,-3.19459 -3.62996,-7.74972 -3.73988,-12.19076 0.0152,-6.20209 0.0365,-12.40469 -0.0633,-18.6062 -0.0908,-2.8483 -4.6e-4,-5.69737 -0.007,-8.546 -0.389,-3.03052 0.48279,-4.98569 2.57652,-7.07602 13.59715,-10.98286 28.76498,-22.11164 46.14621,-24.97268 3.98735,-0.24595 7.99034,-0.23252 11.98394,-0.17659 5.79849,1.02873 9.39311,1.24947 12.49276,6.66153 2.14442,3.00508 2.35106,7.01642 4.1703,10.12139 1.59625,2.40176 1.96247,5.29245 2.90778,7.95505 0,0 -37.46923,20.52516 -37.46923,20.52516 l 0,0 c -0.67028,-2.45938 -0.88844,-5.08765 -2.37002,-7.24661 -1.72537,-3.19909 -1.95522,-7.04695 -4.05657,-10.12383 -1.79766,-3.17857 -6.81172,-2.63603 -9.94868,-2.9676 -3.86408,0.0878 -7.80183,0.005 -11.56445,1.01308 -1.6688,0.48882 -1.3993,0.35272 -3.06227,1.08854 -0.51495,0.22785 -2.01391,1.00521 -1.52742,0.72163 60.9294,-35.51638 44.74182,-24.68357 31.80972,-18.63056 -0.92048,0.68437 -3.89881,1.95873 -4.13743,2.52587 -0.16319,0.38785 -0.013,0.84146 -0.0194,1.2622 -0.0154,2.87659 0.0562,5.75482 -0.0966,8.62941 -0.19613,6.1727 -0.29169,12.35241 -0.12932,18.52696 0.0877,2.57133 -0.56472,6.54307 1.751,8.30443 4.23011,0.89791 8.76503,-0.3255 13.01433,-0.48309 7.47582,-1.01113 14.66105,-3.11115 21.93403,-5.0644 10.24672,-2.30274 20.44388,-4.85114 30.38276,-8.27325 0,0 -33.56835,25.84601 -33.56835,25.84601 z" inkscape:connector-curvature="0"/>
    <path style="fill:#504416;fill-opacity:1;stroke:#000000;stroke-width:8;stroke-linecap:butt;stroke-linejoin:miter;stroke-miterlimit:4;stroke-opacity:1;stroke-dasharray:none;stroke-dashoffset:0" id="path3017" d="m 413.89193,235.4201 c 6.25985,2.0972 11.29959,3.65327 17.9082,2.99607 6.37544,-0.90604 12.40006,-3.52204 17.86091,-6.85163 1.98601,-0.92601 3.80603,-2.17701 5.78135,-3.12357 0.83902,-0.40205 3.38235,-1.53672 2.57881,-1.06776 -61.55979,35.92808 -42.67787,25.26653 -30.96283,17.51309 3.3287,-2.38338 5.65161,-5.79154 8.65874,-8.52575 0.97103,-0.80302 1.97129,-3.08777 2.23089,-3.55592 -0.079,0.14677 -0.079,0.49323 -0.23713,0.44031 -0.55214,-0.18483 -7.61536,-6.72838 -8.40086,-7.37833 -4.03647,-2.89817 -8.39723,-5.62556 -13.33162,-6.6096 -2.20919,-0.0774 -5.89456,-1.19178 -7.38827,0.69092 -17.41768,9.77094 47.89278,-30.39019 30.49405,-16.91439 -0.81982,0.62499 -0.43779,0.33465 -1.14577,0.87146 0,0 -39.75243,15.67924 -39.75243,15.67924 l 0,0 c 0.7789,-0.51429 0.36105,-0.23536 1.25215,-0.83888 13.57862,-9.38422 26.94834,-20.32168 42.86743,-24.88503 2.94081,0.4085 5.97248,0.30169 8.78296,1.42747 5.05322,1.97744 9.66893,4.83115 13.95939,8.14495 3.266,2.55623 6.53943,5.13602 9.72764,7.73175 1.7018,2.77183 1.56772,5.47884 0.0278,8.38676 -1.93975,3.52563 -6.08752,6.06995 -8.33644,9.52707 -13.94213,13.1848 -33.00311,19.53613 -49.63282,28.91909 -6.0128,2.87065 -12.45437,5.32299 -19.20312,5.39793 -6.4994,-0.22654 -12.62666,-2.42255 -18.8503,-4.1526 0,0 35.11127,-23.82265 35.11127,-23.82265 z" inkscape:connector-curvature="0"/>
    <path style="fill:none;stroke:#000000;stroke-width:8;stroke-linecap:butt;stroke-linejoin:miter;stroke-miterlimit:4;stroke-opacity:1;stroke-dasharray:none" d="m 177.14286,649.50504 -34.28572,2.85714" id="path3035" inkscape:connector-curvature="0"/>
    <path style="fill:none;stroke:#000000;stroke-width:8;stroke-linecap:butt;stroke-linejoin:miter;stroke-miterlimit:4;stroke-opacity:1;stroke-dasharray:none" d="m 537.14286,640.93361 45.71428,14.28571" id="path3805" inkscape:connector-curvature="0"/>
  </g>
  <g inkscape:label="avatar" inkscape:groupmode="layer" id="layer1" sodipodi:insensitive="true"/>
  <metadata>
    <rdf:RDF>
      <cc:Work>
        <dc:format>image/svg+xml</dc:format>
        <dc:type rdf:resource="http://purl.org/dc/dcmitype/StillImage"/>
        <cc:license rdf:resource="http://creativecommons.org/licenses/publicdomain/"/>
        <dc:publisher>
          <cc:Agent rdf:about="http://openclipart.org/">
            <dc:title>Open Clip Art Library</dc:title>
          </cc:Agent>
        </dc:publisher>
        <dc:title>Cartoon</dc:title>
        <dc:date>2012-12-02T10:44:56</dc:date>
        <dc:description/>
        <dc:source>http://openclipart.org/detail/173484/cartoon-by-bleonafoniqi-173484</dc:source>
        <dc:creator>
          <cc:Agent>
            <dc:title>BleonaFoniqi</dc:title>
          </cc:Agent>
        </dc:creator>
        <dc:subject>
          <rdf:Bag>
            <rdf:li>cartoon</rdf:li>
            <rdf:li>clip art</rdf:li>
            <rdf:li>clipart</rdf:li>
            <rdf:li>man</rdf:li>
            <rdf:li>stickman</rdf:li>
          </rdf:Bag>
        </dc:subject>
      </cc:Work>
      <cc:License rdf:about="http://creativecommons.org/licenses/publicdomain/">
        <cc:permits rdf:resource="http://creativecommons.org/ns#Reproduction"/>
        <cc:permits rdf:resource="http://creativecommons.org/ns#Distribution"/>
        <cc:permits rdf:resource="http://creativecommons.org/ns#DerivativeWorks"/>
      </cc:License>
    </rdf:RDF>
  </metadata>
</svg>
